<?xml version="1.0" encoding="UTF-8" standalone="no"?>
<!-- Created with Inkscape (http://www.inkscape.org/) -->

<svg
   width="55.785088mm"
   height="80.95578mm"
   viewBox="0 0 55.785088 80.95578"
   version="1.1"
   id="svg5"
   xml:space="preserve"
   xmlns:inkscape="http://www.inkscape.org/namespaces/inkscape"
   xmlns:sodipodi="http://sodipodi.sourceforge.net/DTD/sodipodi-0.dtd"
   xmlns="http://www.w3.org/2000/svg"
   xmlns:svg="http://www.w3.org/2000/svg"><sodipodi:namedview
     id="namedview7"
     pagecolor="#ffffff"
     bordercolor="#000000"
     borderopacity="0.25"
     inkscape:showpageshadow="2"
     inkscape:pageopacity="0.0"
     inkscape:pagecheckerboard="0"
     inkscape:deskcolor="#d1d1d1"
     inkscape:document-units="mm"
     showgrid="false" /><defs
     id="defs2" /><g
     inkscape:label="Layer 1"
     inkscape:groupmode="layer"
     id="layer1"
     transform="translate(-72.362726,-119.66693)"><path
       style="fill:#000000;stroke-width:0.169333"
       d="m 97.619547,200.37275 c -0.65511,-0.3984 -0.9079,-0.98053 -0.9153,-2.10781 -0.006,-0.88639 0.5068,-2.10373 1.64001,-3.89467 0.75076,-1.18651 0.89781,-1.61283 1.28161,-3.71566 0.36449,-1.99706 0.426993,-3.06748 0.18774,-3.21534 -0.0828,-0.0512 -0.58015,-0.84529 -1.10532,-1.76477 -0.91993,-1.61062 -1.60994,-3.24532 -1.63479,-3.873 -0.0104,-0.26187 -0.0306,-0.25696 -0.15743,0.0381 -0.08,0.18627 -0.15089,0.90133 -0.15743,1.58902 -0.017,1.79028 -0.26317,2.44969 -1.24327,3.33088 -0.92498,0.83164 -1.77575,1.13486 -2.96851,1.05802 -1.15316,-0.0743 -1.00487,-0.41705 0.38988,-0.90117 0.89891,-0.31201 1.36074,-0.59582 1.91126,-1.17452 0.72142,-0.75836 0.72511,-0.76863 0.59446,-1.65533 -0.0723,-0.49073 -0.12384,-1.33038 -0.11454,-1.8659 0.0208,-1.19982 -0.25266,-1.28232 -0.84208,-0.254 -0.34737,0.60602 -0.39871,0.87285 -0.32515,1.68961 0.084,0.93288 0.0646,0.99273 -0.50903,1.56633 -1.04218,1.04219 -1.79402,0.63071 -0.86498,-0.4734 0.90349,-1.07373 -0.46585,-0.55883 -1.57694,0.59296 -0.65461,0.6786 -1.13454,1.73682 -1.40662,3.1015 -0.4253,2.13332 -1.34249,3.13267 -2.87509,3.13267 -0.8226,0 -0.85549,-0.28889 -0.0748,-0.65691 1.12357,-0.52966 1.75843,-1.64047 2.0139,-3.52375 0.15094,-1.11263 0.80779,-2.15516 1.96276,-3.11522 1.32565,-1.10193 1.85284,-1.67718 1.85284,-2.02171 0,-0.27299 -0.0705,-0.28774 -0.635,-0.13275 -0.89075,0.2446 -1.45372,0.5517 -3.00078,1.63694 -2.0399,1.43095 -2.42826,1.83106 -3.13269,3.2275 -0.88426,1.75292 -1.27864,2.09086 -2.54718,2.18262 -1.23134,0.0891 -1.34829,-0.17466 -0.28044,-0.63239 0.75102,-0.32193 2.2531,-1.91336 1.55148,-1.64377 -0.18557,0.0713 -0.96635,0.23939 -1.73507,0.37352 -2.18766,0.38174 -3.41381,0.94989 -4.49401,2.08237 -0.54174,0.56795 -0.9735,1.19346 -1.04336,1.51156 -0.17479,0.79578 -0.43095,0.66139 -0.43095,-0.22609 0,-0.98174 0.44978,-1.85703 1.40823,-2.7405 1.10781,-1.02115 1.9176,-1.36715 3.87341,-1.655 2.59631,-0.38211 2.65526,-0.40199 3.39952,-1.14625 1.53925,-1.53925 5.35615,-4.02458 6.55884,-4.27071 0.61623,-0.12611 2.35907,-0.94582 2.95756,-1.39102 0.3118,-0.23195 0.15122,-0.24679 -1.69433,-0.15668 -1.12132,0.0548 -3.40732,0.26001 -5.08,0.45612 -3.89008,0.45608 -9.06468,0.38938 -11.53498,-0.14869 -2.55365,-0.55622 -4.46025,-1.62602 -4.46025,-2.50267 0,-0.46916 1.11674,-1.42303 2.92953,-2.50225 2.18731,-1.30219 4.71537,-2.18529 8.6271,-3.01361 1.46665,-0.31056 2.6668,-0.60583 2.667,-0.65616 2e-4,-0.0503 -0.81878,-0.22957 -1.81996,-0.39832 -4.18276,-0.70502 -5.04992,-1.47103 -2.51684,-2.22328 0.45835,-0.13611 3.92587,-0.93934 7.70558,-1.78495 3.77972,-0.8456 6.89745,-1.5627 6.9283,-1.59355 0.0308,-0.0308 -0.0352,-0.36075 -0.14674,-0.7331 -0.16067,-0.53628 -0.30163,-0.69677 -0.67814,-0.77207 -0.62915,-0.12583 -2.20785,0.29676 -3.13208,0.8384 -0.85385,0.50039 -1.16735,0.41202 -1.02704,-0.2895 0.0853,-0.42657 0.0477,-0.48746 -0.30093,-0.48746 -0.21913,0 -0.67198,0.1143 -1.00633,0.254 -0.61655,0.25761 -2.43772,0.3138 -3.41278,0.1053 -0.80164,-0.17142 -0.6229,-0.56182 0.35839,-0.78283 0.89185,-0.20086 2.43561,-1.00068 2.43561,-1.26189 0,-0.1703 -0.97796,-1.02392 -1.17306,-1.02392 -0.45015,0 -1.34515,0.46421 -1.70561,0.88464 -0.52809,0.61595 -0.89657,0.50727 -1.24666,-0.36768 -0.14133,-0.35323 -0.36661,-0.68431 -0.50061,-0.73573 -0.41902,-0.1608 -1.438,0.16168 -1.9969,0.63197 -0.73046,0.61464 -1.22441,0.52483 -1.34125,-0.24386 -0.1064,-0.70004 -0.10361,-0.70017 -1.97128,0.091 -2.09896,0.88917 -2.20229,0.82056 -1.5269,-1.01385 0.3036,-0.82461 0.53376,-1.13199 1.2679,-1.69333 0.49333,-0.37721 1.05327,-0.93349 1.2443,-1.23618 0.19103,-0.30268 0.40556,-0.55033 0.47674,-0.55033 0.0712,0 0.41724,-0.22873 0.76902,-0.50829 0.35178,-0.27955 0.95281,-0.59878 1.33562,-0.70938 0.38281,-0.11061 0.87775,-0.33908 1.09986,-0.50772 0.22211,-0.16863 0.64121,-0.30843 0.93133,-0.31065 1.00719,-0.008 1.71691,-0.29404 2.46639,-0.99504 0.41446,-0.38765 0.93261,-0.74975 1.15145,-0.80468 0.3959,-0.0994 0.39616,-0.10107 0.0508,-0.34298 -0.40449,-0.28332 -0.46156,-0.73193 -0.0931,-0.73193 0.25422,0 0.37178,-0.84177 0.14871,-1.06484 -0.0579,-0.0579 -0.47448,0.0818 -0.92571,0.31044 -0.45123,0.22866 -0.92569,0.41574 -1.05435,0.41574 -0.12867,0 -0.35582,-0.31026 -0.50477,-0.68946 l -0.27083,-0.68946 -0.64084,0.43546 c -0.35245,0.2395 -0.71839,0.43684 -0.81319,0.43854 -0.0948,0.002 -0.50481,0.22837 -0.91114,0.50372 -0.58076,0.39356 -0.80714,0.46407 -1.05833,0.32963 -0.17576,-0.0941 -0.31955,-0.28263 -0.31955,-0.41906 0,-0.49998 -0.35003,-0.26338 -1.2407,0.83865 -0.5154,0.63772 -0.96064,0.50716 -0.96064,-0.2817 0,-0.55492 0.37098,-1.27459 0.78874,-1.53006 0.11907,-0.0728 0.33937,-0.39133 0.48954,-0.70779 0.52366,-1.10353 1.84401,-2.1217 3.43089,-2.64569 0.62306,-0.20573 1.54529,-0.66762 2.0494,-1.02642 0.64911,-0.462 1.09382,-0.65323 1.524,-0.65533 0.494,-0.002 0.78035,-0.16381 1.53338,-0.86426 0.83369,-0.77547 0.89708,-0.88239 0.63623,-1.07313 -0.23734,-0.17355 -0.47317,-0.14758 -1.30437,0.14361 l -1.01466,0.35546 -0.27673,-0.39509 c -0.2351,-0.33566 -0.36833,-0.3779 -0.88576,-0.28083 -0.33497,0.0628 -0.86195,0.33632 -1.17107,0.60773 -0.68817,0.60423 -0.88892,0.62007 -0.88892,0.0701 0,-0.23283 -0.0438,-0.42333 -0.0974,-0.42333 -0.0536,0 -0.61045,0.3048 -1.23752,0.67733 -0.62706,0.37254 -1.27049,0.67734 -1.42983,0.67734 -0.45183,0 -0.17463,-0.8099 0.55059,-1.60867 0.33823,-0.37253 0.73212,-0.84566 0.87531,-1.05139 0.3876,-0.55691 2.41251,-1.41781 3.03973,-1.29237 1.00824,0.20165 3.37836,-1.09619 3.02448,-1.65615 -0.12098,-0.19142 -0.27068,-0.16352 -0.83191,0.15501 -0.72703,0.41264 -1.01479,0.37738 -1.01479,-0.12433 0,-0.34387 0.87204,-1.07548 1.524,-1.27858 0.23283,-0.0725 0.66908,-0.3462 0.96944,-0.60815 0.41177,-0.35911 0.79415,-0.50433 1.55449,-0.59035 0.90507,-0.1024 1.06166,-0.18037 1.52823,-0.76096 0.62395,-0.77642 0.71009,-1.28846 0.16794,-0.99831 -0.54701,0.29275 -0.89201,0.0742 -0.77852,-0.49329 0.0947,-0.47359 0.0866,-0.47922 -0.52969,-0.36614 -0.36801,0.0675 -0.84727,0.33655 -1.1632,0.65293 -0.32587,0.32634 -0.70901,0.53808 -0.97366,0.53808 -0.47474,0 -0.60717,-0.40622 -0.18522,-0.56814 0.14284,-0.0548 0.20808,-0.20862 0.15128,-0.35664 -0.20529,-0.53497 2.07711,-2.12322 3.05119,-2.12322 0.22927,0 0.55022,-0.13335 0.7132,-0.29633 0.27417,-0.27417 0.27508,-0.30043 0.0121,-0.35109 -0.35292,-0.068 -0.37106,-0.59372 -0.0302,-0.87658 0.31237,-0.25925 0.32904,-0.508 0.034,-0.508 -0.12098,0 -0.40089,0.28634 -0.62204,0.63631 l -0.40208,0.63631 -1.32529,0.0111 c -0.72892,0.006 -1.3253,-0.0414 -1.3253,-0.10547 0,-0.34712 0.82223,-1.06289 1.74445,-1.51859 1.23515,-0.61033 2.79742,-1.68478 3.70489,-2.54804 0.53608,-0.50996 0.64666,-0.72938 0.64666,-1.28313 0,-0.36738 0.10996,-1.09012 0.24435,-1.60609 0.13439,-0.51596 0.29624,-1.35112 0.35966,-1.85591 0.14604,-1.16233 0.69794,-2.48633 1.13359,-2.71948 0.31455,-0.16834 0.32842,-0.13896 0.22306,0.47242 -0.30783,1.78632 -0.29178,3.22224 0.0561,5.02056 0.41324,2.13604 0.69141,2.75379 1.413533,3.13912 0.76932,0.41053 1.31102,0.97848 1.31102,1.37456 0,0.45772 -0.27438,0.43697 -1.01578,-0.0768 -0.54033,-0.37444 -0.662923,-0.39882 -1.064413,-0.21166 -0.24956,0.11633 -0.49308,0.31265 -0.54115,0.43626 -0.13854,0.35626 0.65842,0.93904 1.541173,1.127 0.77781,0.16561 0.83345,0.21798 1.44228,1.35759 0.3483,0.65193 0.68416,1.28058 0.74636,1.397 0.0622,0.11642 0.0682,0.32863 0.0134,0.47159 -0.0894,0.23307 -0.15272,0.23252 -0.61267,-0.005 -0.28211,-0.14589 -0.60661,-0.41525 -0.72111,-0.59859 -0.26723,-0.42789 -0.46538,-0.42562 -0.46538,0.005 0,0.43057 -0.20301,0.43057 -0.59267,0 -0.388063,-0.4288 -0.709523,-0.4321 -0.843913,-0.009 -0.16532,0.52086 1.037813,1.62663 1.894933,1.74159 0.37355,0.0501 1.44297,0.37166 2.3765,0.71458 1.58814,0.58337 1.7585,0.69273 2.64857,1.70027 0.7031,0.7959 0.94685,1.2015 0.93437,1.55484 -0.0435,1.23136 -0.52408,1.79013 -0.8354,0.97128 -0.0974,-0.2561 -0.30739,-0.56881 -0.46671,-0.69491 -0.51519,-0.40778 -1.53748,-0.89899 -1.87095,-0.89899 -0.17861,0 -0.43372,-0.16412 -0.56691,-0.36471 -0.1979,-0.29806 -0.43376,-0.37275 -1.29066,-0.40873 -0.9991,-0.0419 -1.04849,-0.0254 -1.04849,0.35245 0,0.30109 0.23424,0.53899 0.97366,0.98887 0.53552,0.32581 1.19157,0.82047 1.45789,1.09922 0.26633,0.27876 0.6613,0.55128 0.87772,0.60559 0.52681,0.13222 0.66173,0.64451 0.33577,1.27485 -0.28442,0.55 -0.66894,0.67595 -0.82468,0.27011 -0.10364,-0.2701 -1.30915,-0.93898 -1.6923,-0.93898 -0.20218,0 -0.19801,0.0929 0.0264,0.58792 0.21783,0.48058 0.46172,0.66608 1.3358,1.016 0.63142,0.25277 1.40682,0.42808 1.89347,0.42808 0.48395,0 0.90221,0.0941 1.01325,0.22784 0.104,0.12531 0.51338,0.36543 0.90973,0.53359 2.55546,1.0842 2.93307,1.30003 3.34531,1.91206 0.23283,0.34568 0.47519,0.7542 0.53858,0.90783 0.0634,0.15363 0.39264,0.37087 0.73166,0.48276 0.60763,0.20053 0.61476,0.21345 0.50022,0.90601 -0.19594,1.18474 -0.25509,1.19935 -1.21851,0.30098 -0.55313,-0.51579 -0.79912,-0.63723 -1.15352,-0.56948 -0.27899,0.0533 -0.50514,-0.002 -0.59411,-0.14632 -0.10566,-0.17097 -0.46228,-0.21771 -1.34857,-0.17677 -1.08711,0.0502 -1.31095,0.001 -2.2894,-0.50057 -0.59647,-0.30593 -1.13013,-0.5106 -1.18591,-0.45482 -0.34561,0.34562 1.41944,2.33237 2.75332,3.09915 1.24002,0.71283 1.91157,1.25697 1.91157,1.54891 0,0.29652 -0.24451,0.27062 -1.9451,-0.20605 -0.80234,-0.2249 -1.12267,-0.24478 -1.53602,-0.0953 -0.28724,0.10387 -0.7264,0.18885 -0.9759,0.18885 -0.60087,0 -0.58287,0.34562 0.0543,1.04329 0.2794,0.3059 0.508,0.60817 0.508,0.67169 0,0.0635 0.3472,0.31898 0.77155,0.56766 0.64535,0.3782 1.01233,0.46087 2.24366,0.5054 1.9594,0.0709 3.21489,0.42832 3.66249,1.04277 0.19107,0.26229 0.97655,1.19512 1.74552,2.07294 0.76896,0.87782 1.39812,1.70307 1.39812,1.83389 0,0.40386 0.51388,1.25893 1.38739,2.30856 l 0.83616,1.00475 -0.11473,1.12086 c -0.0631,0.61647 -0.17592,1.18677 -0.2507,1.26732 -0.0748,0.0805 -0.32522,-0.14805 -0.55651,-0.508 -0.60636,-0.94363 -2.14828,-2.4115 -2.14828,-2.04509 0,0.35819 -0.64753,0.39534 -0.78202,0.0449 -0.12847,-0.33479 -2.49506,-1.52297 -2.57225,-1.29143 -0.0895,0.26858 -0.51612,0.2231 -1.53309,-0.16343 -0.70162,-0.26667 -1.22126,-0.33401 -2.286,-0.29624 -1.26206,0.0448 -1.38233,0.0794 -1.42977,0.41219 -0.0285,0.19982 -0.19993,0.49738 -0.381,0.66124 -0.54243,0.4909 -0.39738,0.63935 0.51869,0.53086 0.78377,-0.0928 0.87022,-0.0663 1.143,0.35102 0.16231,0.24829 0.5388,0.68291 0.83665,0.96583 0.32523,0.30892 0.56197,0.71732 0.59267,1.0224 0.0445,0.44261 6.8e-4,0.50255 -0.34119,0.46566 -0.21576,-0.0233 -0.63486,-0.22602 -0.93133,-0.4505 -0.6452,-0.48856 -0.89198,-0.54958 -1.53623,-0.37981 -0.3955,0.10422 -0.57388,0.0481 -0.93133,-0.29278 -0.58869,-0.56148 -1.21985,-0.78191 -2.23885,-0.78191 -0.66576,0 -0.92941,0.0861 -1.25209,0.40875 -0.39458,0.39458 -0.71986,1.21303 -0.54973,1.38316 0.0455,0.0455 1.21675,0.34674 2.60267,0.66933 5.18028,1.20576 15.0006,4.28351 18.90273,5.92425 2.41218,1.01425 4.69561,2.66007 5.2812,3.80651 0.70198,1.3743 0.29553,2.70204 -1.05055,3.43176 -2.32016,1.25778 -8.05236,1.58588 -15.78751,0.90365 -4.44794,-0.3923 -6.19629,-0.48559 -6.01134,-0.32073 0.0931,0.083 0.54916,0.45192 1.01338,0.81979 0.46422,0.36788 1.36162,1.13434 1.99421,1.70326 1.66824,1.5003 3.72034,2.93177 4.86662,3.39477 0.63071,0.25476 1.62807,0.46317 2.70971,0.56623 1.54298,0.14701 1.86042,0.23993 3.22164,0.94297 0.85279,0.44045 1.74394,1.04633 2.04751,1.39207 0.8032,0.9148 1.5362,2.59159 1.47214,3.36761 -0.076,0.92033 -0.51972,0.94996 -0.81527,0.0544 -0.12543,-0.38007 -0.38628,-0.90321 -0.57967,-1.16252 -0.39329,-0.5274 -2.53371,-2.4046 -3.06725,-2.69008 -0.18975,-0.10152 -1.09018,-0.26768 -2.00096,-0.36924 -2.26174,-0.2522 -4.03921,-0.86165 -5.32816,-1.82689 l -0.5621,-0.42094 0.43264,0.85376 c 0.61335,1.2104 1.53128,1.85422 3.66312,2.56927 1.7987,0.6033 2.86846,1.66015 2.86981,2.83516 8.5e-4,0.79704 -0.35966,0.69714 -1.12415,-0.31144 -0.78026,-1.02939 -1.18366,-1.25989 -2.79993,-1.59988 -0.6757,-0.14214 -1.54451,-0.4436 -1.93069,-0.66992 -0.78446,-0.45972 -1.69282,-1.42128 -1.9803,-2.09627 -0.31954,-0.75029 -3.04025,-4.60225 -3.37852,-4.78328 -0.29839,-0.1597 -0.29599,-0.12666 0.0384,0.52873 0.2132,0.41791 0.46172,1.46082 0.61791,2.59307 0.24735,1.79305 0.29156,1.92106 0.82954,2.40199 0.57447,0.51355 0.92307,1.18917 0.92307,1.78902 0,0.44819 -0.38296,0.41099 -0.98512,-0.0957 -0.27671,-0.23283 -0.57946,-0.42333 -0.67278,-0.42333 -0.0933,0 -0.40618,-0.26935 -0.69522,-0.59856 -0.4765,-0.54271 -0.52547,-0.70467 -0.52473,-1.73567 5.1e-4,-0.81132 -0.12897,-1.49368 -0.45218,-2.38167 -0.40517,-1.11317 -0.57555,-1.35005 -1.61383,-2.24367 -1.07514,-0.92535 -1.49081,-1.17183 -1.49081,-0.88404 0,0.12458 0.58225,2.02344 0.87337,2.84827 0.44333,1.25609 0.14284,1.55719 -0.76155,0.76312 -0.49712,-0.43647 -0.6164,-0.6768 -0.71077,-1.43213 -0.13356,-1.069 -0.61949,-1.95565 -1.071793,-1.95565 -0.24061,0 -0.37061,0.19678 -0.51881,0.78537 -0.2564,1.01826 -0.13495,1.52439 0.799293,3.33091 0.95909,1.85459 1.03592,2.58043 0.55621,5.25486 -0.416,2.31921 -0.58157,2.76917 -1.536343,4.17511 -0.38598,0.56839 -0.84707,1.35346 -1.02465,1.74459 -0.38218,0.84183 -0.42384,2.43933 -0.0882,3.38009 0.27819,0.77959 0.15092,0.88397 -0.55466,0.45488 z m 15.154693,-23.02096 c 4.00431,-0.67683 5.4071,-1.37878 5.58285,-2.79362 0.11996,-0.96571 -0.35301,-1.7193 -1.6084,-2.56271 -2.63162,-1.768 -5.63065,-2.90112 -11.61223,-4.38743 -2.04468,-0.50807 -3.78936,-0.92376 -3.87706,-0.92376 -0.2878,0 0.005,6.34235 0.37182,8.06369 0.37105,1.73955 0.56023,2.17704 1.05618,2.44247 1.06629,0.57066 7.09477,0.6671 10.08684,0.16136 z m -16.265243,-0.12911 c 0.10207,-0.0684 0.23832,-0.33971 0.30276,-0.60285 0.10495,-0.42851 0.606,-4.79579 0.6105,-5.32123 0.002,-0.2888 -0.58391,-0.27052 -4.06242,0.1267 -6.88375,0.78605 -9.16282,1.47365 -10.59713,3.19715 l -0.47617,0.57217 0.53721,0.48001 c 0.58242,0.52039 2.17258,1.06718 4.14142,1.42407 1.32964,0.24102 9.21637,0.34347 9.54383,0.12398 z m -0.50292,-7.32455 c 1.40015,-0.22788 1.47789,-0.33668 1.36957,-1.91698 -0.0503,-0.73437 -0.1674,-1.4111 -0.26014,-1.50384 -0.11194,-0.11194 -0.63004,-0.0751 -1.54131,0.10952 -2.70195,0.54748 -5.83435,1.87473 -6.76276,2.86549 l -0.39997,0.42682 0.5693,0.0935 c 0.31311,0.0514 0.7979,0.12632 1.0773,0.16641 0.73621,0.10564 4.83988,-0.0606 5.94801,-0.24094 z"
       id="path348" /></g></svg>
